<svg width="20" height="20" viewBox="0 0 20 20" fill="none" xmlns="http://www.w3.org/2000/svg">
<g clip-path="url(#clip0_1700_8555)">
<path d="M9.99625 19.9925C15.517 19.9925 19.9925 15.517 19.9925 9.99625C19.9925 4.47547 15.517 0 9.99625 0C4.47547 0 0 4.47547 0 9.99625C0 15.517 4.47547 19.9925 9.99625 19.9925Z" fill="url(#paint0_linear_1700_8555)"/>
<path d="M11.9704 6.85894H8.08537C7.387 6.85894 6.81881 7.42713 6.81881 8.1255V11.8746C6.81881 12.573 7.387 13.1412 8.08537 13.1412H11.9704C12.6688 13.1412 13.237 12.573 13.237 11.8746V8.1255C13.237 7.42713 12.6688 6.85894 11.9704 6.85894ZM12.757 11.8746C12.757 12.3083 12.4042 12.6612 11.9704 12.6612H8.08537C7.65164 12.6612 7.29881 12.3083 7.29881 11.8746V8.1255C7.29881 7.6918 7.65164 7.33894 8.08537 7.33894H11.9704C12.4042 7.33894 12.757 7.6918 12.757 8.1255V11.8746ZM8.32217 5.08608V5.99596C8.32217 6.05962 8.34746 6.12066 8.39247 6.16567C8.43748 6.21068 8.49852 6.23596 8.56217 6.23596C8.62583 6.23596 8.68687 6.21068 8.73188 6.16567C8.77689 6.12066 8.80217 6.05962 8.80217 5.99596V5.08608C9.22937 4.97865 9.54659 4.59142 9.54659 4.13139C9.54659 3.58857 9.10499 3.14697 8.56217 3.14697C8.01936 3.14697 7.57776 3.58857 7.57776 4.13139C7.57776 4.59142 7.89501 4.97865 8.32217 5.08608ZM8.56217 3.62697C8.84032 3.62697 9.06659 3.85324 9.06659 4.13139C9.06659 4.4095 8.84032 4.6358 8.56217 4.6358C8.28403 4.6358 8.05776 4.4095 8.05776 4.13139C8.05776 3.85324 8.28403 3.62697 8.56217 3.62697ZM11.1424 5.08608V5.99596C11.1424 6.05962 11.1677 6.12066 11.2127 6.16567C11.2577 6.21068 11.3187 6.23596 11.3824 6.23596C11.446 6.23596 11.5071 6.21068 11.5521 6.16567C11.5971 6.12066 11.6224 6.05962 11.6224 5.99596V5.08608C12.0496 4.97865 12.3668 4.59142 12.3668 4.13139C12.3668 3.58857 11.9252 3.14697 11.3824 3.14697C10.8396 3.14697 10.398 3.58857 10.398 4.13139C10.398 4.59142 10.7152 4.97865 11.1424 5.08608ZM11.3824 3.62697C11.6605 3.62697 11.8868 3.85324 11.8868 4.13139C11.8868 4.4095 11.6605 4.6358 11.3824 4.6358C11.1043 4.6358 10.878 4.4095 10.878 4.13139C10.878 3.85324 11.1042 3.62697 11.3824 3.62697ZM11.678 14.914V14.0042C11.678 13.9405 11.6527 13.8795 11.6077 13.8345C11.5627 13.7894 11.5017 13.7642 11.438 13.7642C11.3744 13.7642 11.3133 13.7894 11.2683 13.8345C11.2233 13.8795 11.198 13.9405 11.198 14.0042V14.914C10.7708 15.0215 10.4536 15.4087 10.4536 15.8687C10.4536 16.4115 10.8952 16.8531 11.438 16.8531C11.9808 16.8531 12.4224 16.4115 12.4224 15.8687C12.4224 15.4087 12.1052 15.0215 11.678 14.914ZM11.438 16.3731C11.1599 16.3731 10.9336 16.1469 10.9336 15.8687C10.9336 15.5906 11.1599 15.3643 11.438 15.3643C11.7162 15.3643 11.9424 15.5906 11.9424 15.8687C11.9424 16.1469 11.7162 16.3731 11.438 16.3731ZM8.85779 14.914V14.0042C8.85779 13.9405 8.8325 13.8795 8.78749 13.8345C8.74249 13.7894 8.68144 13.7642 8.61779 13.7642C8.55414 13.7642 8.49309 13.7894 8.44808 13.8345C8.40307 13.8795 8.37779 13.9405 8.37779 14.0042V14.914C7.95059 15.0215 7.63337 15.4087 7.63337 15.8687C7.63337 16.4115 8.07497 16.8531 8.61779 16.8531C9.1606 16.8531 9.6022 16.4115 9.6022 15.8687C9.6022 15.4087 9.28496 15.0215 8.85779 14.914ZM8.61779 16.3731C8.33964 16.3731 8.11337 16.1469 8.11337 15.8687C8.11337 15.5906 8.33964 15.3643 8.61779 15.3643C8.89593 15.3643 9.1222 15.5906 9.1222 15.8687C9.1222 16.1469 8.89596 16.3731 8.61779 16.3731ZM14.0042 8.80214H14.9141C15.0215 9.22934 15.4087 9.54656 15.8688 9.54656C16.4116 9.54656 16.8532 9.10496 16.8532 8.56214C16.8532 8.01932 16.4116 7.57772 15.8688 7.57772C15.4088 7.57772 15.0215 7.89497 14.9141 8.32214H14.0042C13.9405 8.32214 13.8795 8.34743 13.8345 8.39244C13.7895 8.43744 13.7642 8.49849 13.7642 8.56214C13.7642 8.62579 13.7895 8.68684 13.8345 8.73185C13.8795 8.77686 13.9405 8.80214 14.0042 8.80214ZM15.8688 8.05772C16.1469 8.05772 16.3732 8.28403 16.3732 8.56214C16.3732 8.84028 16.1469 9.06656 15.8688 9.06656C15.5906 9.06656 15.3643 8.84028 15.3643 8.56214C15.3643 8.284 15.5906 8.05772 15.8688 8.05772H15.8688ZM15.8688 10.3979C15.4087 10.3979 15.0215 10.7152 14.9141 11.1424H14.0042C13.9405 11.1424 13.8795 11.1677 13.8345 11.2127C13.7895 11.2577 13.7642 11.3187 13.7642 11.3824C13.7642 11.446 13.7895 11.5071 13.8345 11.5521C13.8795 11.5971 13.9405 11.6224 14.0042 11.6224H14.9141C15.0215 12.0495 15.4087 12.3668 15.8688 12.3668C16.4116 12.3668 16.8532 11.9252 16.8532 11.3824C16.8532 10.8395 16.4116 10.3979 15.8688 10.3979ZM15.8688 11.8868C15.5906 11.8868 15.3643 11.6605 15.3643 11.3824C15.3643 11.1042 15.5906 10.8779 15.8688 10.8779C16.1469 10.8779 16.3732 11.1042 16.3732 11.3824C16.3732 11.6605 16.1469 11.8868 15.8688 11.8868H15.8688ZM5.996 11.198H5.08617C4.97872 10.7708 4.59148 10.4536 4.13145 10.4536C3.58864 10.4536 3.14704 10.8952 3.14704 11.438C3.14704 11.9808 3.58864 12.4224 4.13142 12.4224C4.59148 12.4224 4.97872 12.1051 5.08617 11.678H5.99603C6.05968 11.678 6.12073 11.6527 6.16573 11.6077C6.21074 11.5627 6.23603 11.5016 6.23603 11.438C6.23603 11.3743 6.21074 11.3133 6.16573 11.2683C6.12073 11.2233 6.05968 11.198 5.99603 11.198H5.996ZM4.13142 11.9424C3.85328 11.9424 3.627 11.7161 3.627 11.438C3.627 11.1598 3.85328 10.9336 4.13139 10.9336C4.40956 10.9336 4.63584 11.1598 4.63584 11.438C4.63584 11.7161 4.4096 11.9424 4.13142 11.9424ZM5.996 8.37776H5.08617C4.97865 7.95059 4.59145 7.63334 4.13139 7.63334C3.58857 7.63334 3.14697 8.07494 3.14697 8.61776C3.14697 9.16057 3.58857 9.60217 4.13136 9.60217C4.59142 9.60217 4.97865 9.28496 5.08611 8.85776H5.99596C6.05962 8.85776 6.12066 8.83247 6.16567 8.78746C6.21068 8.74245 6.23596 8.68141 6.23596 8.61776C6.23596 8.5541 6.21068 8.49306 6.16567 8.44805C6.12066 8.40304 6.05965 8.37776 5.996 8.37776ZM4.13142 9.12217C3.85328 9.12217 3.627 8.89593 3.627 8.61776C3.627 8.33958 3.85328 8.11334 4.13139 8.11334C4.40956 8.11334 4.63584 8.33961 4.63584 8.61776C4.63584 8.8959 4.4096 9.12217 4.13142 9.12217Z" fill="black"/>
<path d="M9.76208 8.71175C9.73005 8.63941 9.6777 8.57792 9.61139 8.53476C9.54508 8.4916 9.46767 8.46863 9.38855 8.46863C9.30943 8.46863 9.23201 8.4916 9.1657 8.53476C9.09939 8.57792 9.04704 8.63941 9.01501 8.71175L7.97946 11.0503C7.90624 11.2156 8.0273 11.4016 8.2081 11.4016C8.25681 11.4016 8.30446 11.3874 8.3452 11.3607C8.38594 11.334 8.41799 11.2959 8.43741 11.2513L8.63431 10.7986C8.63964 10.7863 8.64843 10.7759 8.65961 10.7686C8.67079 10.7612 8.68386 10.7573 8.69722 10.7574H10.0779C10.1052 10.7574 10.1299 10.7735 10.1407 10.7986L10.3374 11.2507C10.3569 11.2956 10.3891 11.3337 10.4299 11.3605C10.4708 11.3873 10.5187 11.4016 10.5676 11.4016C10.749 11.4016 10.8705 11.215 10.7971 11.049L9.76208 8.71175ZM9.83418 10.3258H8.94701C8.93564 10.3258 8.92444 10.3229 8.91443 10.3175C8.90442 10.3121 8.89592 10.3043 8.88968 10.2948C8.88344 10.2853 8.87966 10.2744 8.87869 10.2631C8.87771 10.2517 8.87957 10.2403 8.8841 10.2299L9.32772 9.20865C9.35159 9.15364 9.4296 9.15364 9.45351 9.20865L9.89709 10.2299C9.90162 10.2403 9.90348 10.2517 9.90251 10.2631C9.90153 10.2744 9.89776 10.2853 9.89152 10.2948C9.88528 10.3043 9.87677 10.3121 9.86676 10.3175C9.85675 10.3229 9.84555 10.3258 9.83418 10.3258ZM11.5627 8.46865C11.4938 8.46865 11.4277 8.49601 11.379 8.54473C11.3303 8.59344 11.3029 8.6595 11.3029 8.72839V11.1418C11.3029 11.2107 11.3303 11.2768 11.379 11.3255C11.4277 11.3742 11.4938 11.4016 11.5627 11.4016C11.6315 11.4016 11.6976 11.3742 11.7463 11.3255C11.795 11.2768 11.8224 11.2107 11.8224 11.1418V8.72839C11.8224 8.6595 11.795 8.59344 11.7463 8.54473C11.6976 8.49601 11.6315 8.46865 11.5627 8.46865Z" fill="black"/>
</g>
<defs>
<linearGradient id="paint0_linear_1700_8555" x1="4.49695e-06" y1="9.99625" x2="19.9925" y2="9.99625" gradientUnits="userSpaceOnUse">
<stop stop-color="#0091EE"/>
<stop offset="1" stop-color="#8BDEFF"/>
</linearGradient>
<clipPath id="clip0_1700_8555">
<rect width="20" height="20" fill="white"/>
</clipPath>
</defs>
</svg>
