<svg width="20" height="20" viewBox="0 0 20 20" fill="none" xmlns="http://www.w3.org/2000/svg">
<g clip-path="url(#clip0_1137_4859)">
<path d="M9.99625 19.9925C15.517 19.9925 19.9925 15.517 19.9925 9.99625C19.9925 4.47547 15.517 0 9.99625 0C4.47547 0 0 4.47547 0 9.99625C0 15.517 4.47547 19.9925 9.99625 19.9925Z" fill="url(#paint0_linear_1137_4859)"/>
<g clip-path="url(#clip1_1137_4859)">
<path d="M10.0009 5.17188C7.33837 5.17188 5.17188 7.33837 5.17188 10.0009C5.17188 12.6634 7.33837 14.8299 10.0009 14.8299C12.6634 14.8299 14.8299 12.6634 14.8299 10.0009C14.8299 7.33837 12.6639 5.17188 10.0009 5.17188ZM13.4489 8.11887H12.2719C12.1424 7.48037 11.9464 6.92087 11.6999 6.46337C12.4409 6.81981 13.0523 7.39852 13.4489 8.11887ZM10.0009 13.9294C9.49387 13.9294 8.94637 13.1234 8.65687 11.8824H11.3454C11.0559 13.1239 10.5079 13.9294 10.0009 13.9294ZM8.50587 10.9824C8.47087 10.6704 8.44988 10.3429 8.44988 10.0004C8.44988 9.65787 8.47087 9.33088 8.50587 9.01838H11.4964C11.5314 9.33038 11.5524 9.65787 11.5524 10.0004C11.5524 10.3429 11.5314 10.6699 11.4964 10.9824H8.50587ZM6.07238 10.0009C6.07238 9.66137 6.12038 9.33337 6.20138 9.01887H7.59687C7.53376 9.67202 7.53376 10.3297 7.59687 10.9829H6.20138C6.1169 10.6623 6.07355 10.3324 6.07238 10.0009ZM10.0009 6.07187C10.5079 6.07187 11.0554 6.87787 11.3449 8.11887H8.65638C8.94638 6.87737 9.49437 6.07187 10.0009 6.07187ZM12.4054 9.01887H13.8009C13.8824 9.33337 13.9299 9.66137 13.9299 10.0009C13.9299 10.3404 13.8819 10.6684 13.8009 10.9829H12.4054C12.4685 10.3297 12.4685 9.67202 12.4054 9.01887ZM8.30238 6.46337C8.05588 6.92087 7.85988 7.48037 7.73038 8.11887H6.55338C6.94981 7.39842 7.56125 6.81967 8.30238 6.46337ZM6.55338 11.8824H7.73038C7.85988 12.5209 8.05588 13.0804 8.30238 13.5379C7.56125 13.1816 6.94981 12.6028 6.55338 11.8824ZM11.6999 13.5379C11.9464 13.0804 12.1424 12.5209 12.2719 11.8824H13.4489C13.0523 12.6027 12.4409 13.1814 11.6999 13.5379Z" fill="#121728"/>
<path d="M16.8734 7.1269C16.8262 7.01865 16.7383 6.9333 16.6287 6.88926C16.5191 6.84522 16.3966 6.84602 16.2876 6.8915C16.1786 6.93697 16.0919 7.02347 16.0461 7.13233C16.0003 7.2412 15.9992 7.3637 16.0429 7.4734C16.5464 8.67177 16.6809 9.99312 16.4292 11.2684C16.1775 12.5436 15.551 13.7147 14.6299 14.6319C13.3919 15.8699 11.7469 16.5514 9.99787 16.5514C8.24887 16.5514 6.60388 15.8699 5.36588 14.6319C4.12787 13.3939 3.44638 11.7489 3.44638 9.9999C3.44638 8.2509 4.12837 6.6059 5.36637 5.3684C6.28363 4.44728 7.45488 3.82082 8.73023 3.56919C10.0056 3.31755 11.327 3.4522 12.5254 3.9559C13.0329 4.1669 13.5144 4.4444 13.9564 4.7789C14.1544 4.9284 14.0554 4.7399 14.2059 4.5419C14.3559 4.3439 14.6979 4.2114 14.4999 4.0619C13.999 3.68166 13.4518 3.36679 12.8714 3.1249C11.5085 2.55224 10.0057 2.39926 8.5553 2.68554C7.10494 2.97182 5.77299 3.68433 4.72988 4.7319C3.32188 6.1399 2.54688 8.0109 2.54688 10.0004C2.54688 11.9899 3.32188 13.8609 4.72988 15.2684C6.13738 16.6764 8.00837 17.4514 9.99787 17.4514C11.9874 17.4514 13.8584 16.6764 15.2659 15.2684C16.3136 14.2254 17.0263 12.8935 17.3127 11.4431C17.5991 9.9927 17.4461 8.48985 16.8734 7.1269Z" fill="#121728"/>
<path d="M14.9481 6.45861C14.5721 6.45861 14.2181 6.31211 13.9521 6.04561C13.6861 5.77911 13.5391 5.42561 13.5391 5.04961C13.5391 4.67311 13.6856 4.31961 13.9521 4.05311C14.4841 3.52111 15.4126 3.52161 15.9446 4.05311C16.2106 4.31911 16.3571 4.67261 16.3571 5.04911C16.3575 5.23415 16.3213 5.41745 16.2505 5.58841C16.1797 5.75936 16.0757 5.91459 15.9446 6.04511C15.8141 6.17661 15.6589 6.28088 15.4878 6.35186C15.3167 6.42285 15.1333 6.45913 14.9481 6.45861ZM14.9481 4.54111C14.8812 4.54098 14.8149 4.55405 14.7531 4.57959C14.6913 4.60512 14.6351 4.64261 14.5879 4.6899C14.5406 4.73719 14.5031 4.79335 14.4775 4.85517C14.452 4.91698 14.4389 4.98323 14.4391 5.05011C14.4391 5.18561 14.4921 5.31361 14.5881 5.41011C14.685 5.50263 14.8138 5.55425 14.9478 5.55425C15.0818 5.55425 15.2106 5.50263 15.3076 5.41011C15.4036 5.31411 15.4566 5.18611 15.4566 5.05011C15.4566 4.91411 15.4041 4.78661 15.3076 4.69061C15.2606 4.64298 15.2047 4.60522 15.1429 4.57955C15.0812 4.55387 15.0149 4.5408 14.9481 4.54111Z" fill="#F98A17"/>
</g>
</g>
<defs>
<linearGradient id="paint0_linear_1137_4859" x1="4.49695e-06" y1="9.99625" x2="19.9925" y2="9.99625" gradientUnits="userSpaceOnUse">
<stop stop-color="#0091EE"/>
<stop offset="1" stop-color="#8BDEFF"/>
</linearGradient>
<clipPath id="clip0_1137_4859">
<rect width="20" height="20" fill="white"/>
</clipPath>
<clipPath id="clip1_1137_4859">
<rect width="16" height="16" fill="white" transform="translate(2 2)"/>
</clipPath>
</defs>
</svg>
