<svg width="20" height="20" viewBox="0 0 20 20" fill="none" xmlns="http://www.w3.org/2000/svg">
<g clip-path="url(#clip0_1137_4849)">
<path d="M9.99625 19.9925C15.517 19.9925 19.9925 15.517 19.9925 9.99625C19.9925 4.47547 15.517 0 9.99625 0C4.47547 0 0 4.47547 0 9.99625C0 15.517 4.47547 19.9925 9.99625 19.9925Z" fill="url(#paint0_linear_1137_4849)"/>
<g clip-path="url(#clip1_1137_4849)">
<path d="M10.699 6.26562C9.82213 6.26562 8.96499 6.52564 8.23593 7.01278C7.50687 7.49992 6.93864 8.19231 6.60309 9.0024C6.26755 9.81248 6.17975 10.7039 6.35081 11.5639C6.52187 12.4238 6.94411 13.2138 7.56412 13.8338C8.18413 14.4538 8.97408 14.876 9.83406 15.0471C10.694 15.2182 11.5854 15.1304 12.3955 14.7948C13.2056 14.4593 13.898 13.891 14.3851 13.162C14.8723 12.4329 15.1323 11.5758 15.1323 10.699C15.131 9.52356 14.6635 8.39668 13.8324 7.56555C13.0012 6.73442 11.8744 6.26692 10.699 6.26562ZM11.2898 7.92463L11.427 8.26879C11.5914 8.31812 11.7504 8.38419 11.9013 8.46596L12.2413 8.32059C12.3086 8.29086 12.383 8.28073 12.4558 8.29138C12.5286 8.30203 12.5969 8.33303 12.6529 8.38079C12.7844 8.49143 12.9061 8.61322 13.0167 8.74479C13.0643 8.8008 13.0952 8.8691 13.1058 8.94185C13.1164 9.01461 13.1063 9.08888 13.0766 9.15616L12.9313 9.49613C13.013 9.64717 13.0791 9.8062 13.1284 9.97073L13.4712 10.1077C13.5389 10.1349 13.5979 10.1801 13.6417 10.2385C13.6855 10.2969 13.7124 10.3662 13.7195 10.4388C13.7368 10.6127 13.7368 10.788 13.7195 10.9619C13.7119 11.0337 13.6849 11.1021 13.6413 11.1596C13.5978 11.2172 13.5394 11.2618 13.4724 11.2886L13.1287 11.426C13.0793 11.5905 13.0133 11.7496 12.9315 11.9006L13.0769 12.2406C13.1065 12.3079 13.1166 12.3823 13.106 12.4551C13.0953 12.5279 13.0644 12.5962 13.0167 12.6522C12.9061 12.7836 12.7844 12.9053 12.6531 13.016C12.5971 13.0637 12.5287 13.0947 12.4558 13.1053C12.383 13.1159 12.3086 13.1057 12.2413 13.0759L11.9016 12.9308C11.7506 13.0126 11.5916 13.0786 11.4272 13.128L11.2905 13.4707C11.2636 13.5385 11.2185 13.5975 11.1603 13.6414C11.102 13.6852 11.0328 13.7121 10.9603 13.7192C10.8803 13.7272 10.7949 13.7311 10.7069 13.7311C10.6189 13.7311 10.5291 13.7272 10.4388 13.7192C10.3663 13.7125 10.2971 13.6858 10.2388 13.6422C10.1805 13.5986 10.1354 13.5397 10.1084 13.4721L9.97119 13.128C9.80675 13.0786 9.64779 13.0126 9.49683 12.9308L9.15686 13.0762C9.08954 13.1059 9.0152 13.116 8.94239 13.1054C8.86957 13.0947 8.80124 13.0637 8.74526 13.016C8.61376 12.9053 8.49205 12.7835 8.38149 12.652C8.33386 12.5959 8.30297 12.5277 8.29236 12.4549C8.28176 12.3821 8.29187 12.3079 8.32153 12.2406L8.46689 11.9006C8.38513 11.7496 8.31906 11.5905 8.26973 11.426L7.92696 11.2891C7.85949 11.262 7.8007 11.217 7.75694 11.1589C7.71319 11.1008 7.68613 11.0319 7.67869 10.9596C7.66131 10.7851 7.66131 10.6093 7.67869 10.4348C7.68606 10.3628 7.71298 10.2942 7.75653 10.2365C7.80009 10.1787 7.85862 10.1339 7.92579 10.107L8.26949 9.96956C8.31882 9.80504 8.38489 9.646 8.46666 9.49496L8.32129 9.15499C8.29162 9.08766 8.28152 9.01333 8.29217 8.94053C8.30282 8.86773 8.33378 8.7994 8.38149 8.74339C8.49202 8.61194 8.61364 8.49023 8.74503 8.37963C8.80097 8.3317 8.86936 8.30063 8.94226 8.29001C9.01516 8.2794 9.08957 8.28968 9.15686 8.31966L9.49659 8.46479C9.64756 8.38302 9.80651 8.31696 9.97096 8.26763L10.1077 7.92486C10.1346 7.8571 10.1796 7.79806 10.2379 7.75422C10.2961 7.71038 10.3653 7.68344 10.4379 7.67636C10.6113 7.66048 10.7859 7.66048 10.9594 7.67636C11.032 7.68323 11.1013 7.71005 11.1596 7.75387C11.2179 7.79769 11.263 7.85679 11.2898 7.92463ZM10.699 14.6656C9.64693 14.6656 8.638 14.2477 7.8941 13.5038C7.15021 12.7599 6.73229 11.751 6.73229 10.699C6.73229 9.64693 7.15021 8.638 7.8941 7.8941C8.638 7.15021 9.64693 6.73229 10.699 6.73229C10.7608 6.73229 10.8202 6.75687 10.864 6.80063C10.9077 6.84439 10.9323 6.90374 10.9323 6.96563C10.9323 7.02751 10.9077 7.08686 10.864 7.13062C10.8202 7.17438 10.7608 7.19896 10.699 7.19896C9.80957 7.19956 8.95381 7.53897 8.30577 8.14812C7.65773 8.75727 7.26609 9.59042 7.21051 10.4781C7.15494 11.3657 7.43961 12.2412 8.00661 12.9264C8.57361 13.6117 9.38036 14.0551 10.2627 14.1667C11.1451 14.2782 12.0368 14.0494 12.7565 13.5268C13.4762 13.0042 13.9697 12.2271 14.1368 11.3536C14.3038 10.48 14.1318 9.57559 13.6557 8.82435C13.1796 8.07311 12.4352 7.53145 11.574 7.30956C11.5152 7.29302 11.4653 7.25414 11.4349 7.20126C11.4045 7.14837 11.396 7.08568 11.4113 7.02662C11.4266 6.96755 11.4643 6.91681 11.5165 6.88526C11.5688 6.85371 11.6312 6.84386 11.6906 6.85783C12.6258 7.09886 13.4409 7.67279 13.9831 8.47198C14.5253 9.27116 14.7573 10.2407 14.6357 11.1987C14.514 12.1568 14.047 13.0376 13.3222 13.6758C12.5974 14.3141 11.6647 14.666 10.699 14.6656ZM13.8926 14.4071L14.2193 14.7338L14.7326 14.219L14.4059 13.8924C14.2478 14.0764 14.0762 14.2484 13.8926 14.4071ZM16.5323 16.0864C16.5322 16.0647 16.5278 16.0432 16.5194 16.0232C16.511 16.0032 16.4987 15.985 16.4833 15.9697L15.0644 14.549L14.549 15.0646L15.9679 16.4835C15.9831 16.4989 16.0013 16.5112 16.0213 16.5196C16.0413 16.5279 16.0628 16.5323 16.0845 16.5323C16.1056 16.5324 16.1265 16.5284 16.146 16.5203C16.1655 16.5123 16.1832 16.5005 16.1982 16.4856L16.4817 16.2021C16.4975 16.1873 16.5101 16.1693 16.5188 16.1494C16.5275 16.1296 16.5321 16.1081 16.5323 16.0864Z" fill="#121728"/>
<path d="M10.7057 11.8665C11.3501 11.8665 11.8724 11.3442 11.8724 10.6999C11.8724 10.0555 11.3501 9.5332 10.7057 9.5332C10.0614 9.5332 9.53906 10.0555 9.53906 10.6999C9.53906 11.3442 10.0614 11.8665 10.7057 11.8665Z" fill="#121728"/>
<path d="M10.3617 8.54998C10.348 8.58441 10.3262 8.61507 10.2983 8.63941C10.2703 8.66376 10.237 8.6811 10.201 8.68998C10.0007 8.73969 9.80914 8.81921 9.63256 8.92588C9.60092 8.94499 9.56519 8.95631 9.52831 8.95891C9.49144 8.96151 9.45447 8.95531 9.42046 8.94081L9.01306 8.76698C8.92567 8.84287 8.84358 8.92465 8.76736 9.01175L8.94166 9.41985C8.95615 9.45386 8.96236 9.49082 8.95976 9.5277C8.95716 9.56457 8.94584 9.60031 8.92673 9.63195C8.82001 9.80858 8.74049 10.0003 8.69083 10.2006C8.68194 10.2366 8.66461 10.2699 8.64026 10.2979C8.61592 10.3258 8.58526 10.3476 8.55083 10.3613L8.13946 10.5247C8.1306 10.6402 8.1306 10.7563 8.13946 10.8719L8.55083 11.0352C8.58526 11.049 8.61592 11.0707 8.64026 11.0987C8.66461 11.1266 8.68194 11.16 8.69083 11.196C8.74004 11.3969 8.81934 11.5892 8.92603 11.7665C8.94514 11.7981 8.95646 11.8339 8.95906 11.8707C8.96166 11.9076 8.95545 11.9446 8.94096 11.9786L8.7669 12.386C8.84286 12.4734 8.92472 12.5556 9.0119 12.6319L9.41976 12.4576C9.45377 12.4431 9.49074 12.4369 9.52761 12.4395C9.56449 12.4421 9.60022 12.4534 9.63186 12.4725C9.80844 12.5792 10 12.6587 10.2003 12.7084C10.2363 12.7173 10.2696 12.7347 10.2976 12.759C10.3255 12.7834 10.3473 12.814 10.361 12.8484L10.5244 13.2596C10.64 13.2677 10.756 13.2677 10.8716 13.2596L11.0349 12.848C11.0486 12.8136 11.0704 12.7829 11.0984 12.7585C11.1263 12.7342 11.1597 12.7169 11.1957 12.708C11.3966 12.6586 11.5889 12.5792 11.7662 12.4725C11.7978 12.4534 11.8335 12.4421 11.8704 12.4395C11.9073 12.4369 11.9443 12.4431 11.9783 12.4576L12.3857 12.6317C12.473 12.5557 12.5551 12.4738 12.6314 12.3867L12.4571 11.9786C12.4426 11.9446 12.4364 11.9076 12.439 11.8707C12.4416 11.8339 12.4529 11.7981 12.472 11.7665C12.5788 11.5899 12.6583 11.3982 12.7079 11.1978C12.7168 11.1619 12.7341 11.1285 12.7585 11.1005C12.7828 11.0726 12.8135 11.0508 12.8479 11.0371L13.2593 10.8737C13.2681 10.7582 13.2681 10.6421 13.2593 10.5265L12.8479 10.3632C12.8135 10.3495 12.7828 10.3277 12.7585 10.2998C12.7341 10.2718 12.7168 10.2384 12.7079 10.2024C12.6586 10.0015 12.5793 9.80921 12.4727 9.63195C12.4536 9.60031 12.4423 9.56457 12.4397 9.5277C12.4371 9.49082 12.4433 9.45386 12.4578 9.41985L12.6318 9.01245C12.5559 8.92498 12.474 8.84281 12.3868 8.76651L11.979 8.94081C11.945 8.95531 11.908 8.96151 11.8711 8.95891C11.8342 8.95631 11.7985 8.94499 11.7669 8.92588C11.5903 8.81921 11.3987 8.73969 11.1985 8.68998C11.1625 8.6811 11.1291 8.66376 11.1012 8.63941C11.0732 8.61507 11.0514 8.58441 11.0377 8.54998L10.8744 8.13885C10.7588 8.1308 10.6428 8.1308 10.5272 8.13885L10.3617 8.54998ZM10.6994 9.06588C11.0224 9.06588 11.3382 9.16167 11.6068 9.34115C11.8754 9.52062 12.0847 9.77571 12.2084 10.0742C12.332 10.3726 12.3643 10.701 12.3013 11.0179C12.2383 11.3347 12.0827 11.6257 11.8543 11.8542C11.6259 12.0826 11.3348 12.2381 11.018 12.3012C10.7012 12.3642 10.3728 12.3318 10.0743 12.2082C9.77586 12.0846 9.52077 11.8752 9.3413 11.6066C9.16182 11.338 9.06603 11.0223 9.06603 10.6992C9.06659 10.2662 9.23885 9.85108 9.54504 9.54489C9.85122 9.2387 10.2663 9.06644 10.6994 9.06588Z" fill="#121728"/>
<path d="M10.6985 5.79953C11.6058 5.79994 12.4949 6.05422 13.2652 6.5336V5.8196C13.265 5.76187 13.2434 5.70626 13.2047 5.66351C13.1659 5.62076 13.1126 5.5939 13.0552 5.58813C11.629 5.48211 10.2324 5.12722 8.92869 4.53953C8.89853 4.52508 8.86552 4.51758 8.83208 4.51758C8.79865 4.51758 8.76564 4.52508 8.73548 4.53953C7.43176 5.12779 6.03492 5.4827 4.60852 5.58813C4.55108 5.5939 4.49783 5.62076 4.45904 5.66351C4.42025 5.70626 4.39869 5.76187 4.39852 5.8196V7.94853C4.39007 9.72305 5.05163 11.4354 6.25095 12.7433C5.90564 11.9975 5.75391 11.1766 5.80978 10.3566C5.86566 9.5366 6.12734 8.74392 6.57064 8.05182C7.01394 7.35972 7.62456 6.79053 8.34605 6.39686C9.06754 6.0032 9.87662 5.79776 10.6985 5.79953Z" fill="#121728"/>
<path d="M14.2022 7.27715V4.91605C14.2039 4.86427 14.1853 4.81388 14.1505 4.77555C14.1156 4.73722 14.0672 4.71396 14.0155 4.71071C11.2584 4.63325 9.53714 3.83198 8.92511 3.49131C8.89841 3.47551 8.86801 3.46705 8.83698 3.4668C8.80596 3.46656 8.77542 3.47453 8.74848 3.48991C8.13388 3.83198 6.41258 4.63325 3.65761 4.71071C3.60556 4.71349 3.55666 4.73654 3.52138 4.77491C3.4861 4.81329 3.46725 4.86394 3.46884 4.91605V7.94938C3.46252 9.37367 3.83907 10.7735 4.5591 12.0024C5.27913 13.2313 6.31617 14.2441 7.56174 14.9349L8.71651 15.5672C8.75206 15.5883 8.79257 15.5996 8.83389 15.5999C8.87522 15.6002 8.91587 15.5895 8.95171 15.5689L9.28164 15.3883C8.56081 15.1678 7.9006 14.7839 7.35244 14.2664V14.268C6.29715 13.5874 5.43071 12.6514 4.83341 11.5468C4.23611 10.4422 3.92727 9.20465 3.93551 7.94891V5.81998C3.936 5.64572 4.00129 5.47788 4.11868 5.3491C4.23607 5.22032 4.39718 5.13981 4.57064 5.12325C5.94251 5.02324 7.28615 4.68308 8.54034 4.11828C8.63272 4.07483 8.73354 4.0523 8.83563 4.0523C8.93771 4.0523 9.03854 4.07483 9.13091 4.11828C10.3853 4.68243 11.7287 5.02255 13.1004 5.12325C13.2738 5.13981 13.4349 5.22032 13.5523 5.3491C13.6697 5.47788 13.735 5.64572 13.7355 5.81998V6.85901C13.8997 6.98842 14.0556 7.12807 14.2022 7.27715Z" fill="#121728"/>
</g>
</g>
<defs>
<linearGradient id="paint0_linear_1137_4849" x1="4.49695e-06" y1="9.99625" x2="19.9925" y2="9.99625" gradientUnits="userSpaceOnUse">
<stop stop-color="#0091EE"/>
<stop offset="1" stop-color="#8BDEFF"/>
</linearGradient>
<clipPath id="clip0_1137_4849">
<rect width="20" height="20" fill="white"/>
</clipPath>
<clipPath id="clip1_1137_4849">
<rect width="14" height="14" fill="white" transform="translate(3 3)"/>
</clipPath>
</defs>
</svg>
