<svg width="20" height="20" viewBox="0 0 20 20" fill="none" xmlns="http://www.w3.org/2000/svg">
<rect width="20" height="20" rx="10" fill="url(#paint0_linear_1137_4841)"/>
<path d="M9.92969 5.625C9.0644 5.625 8.21853 5.88159 7.49907 6.36232C6.7796 6.84305 6.21885 7.52633 5.88772 8.32576C5.55658 9.12519 5.46994 10.0049 5.63875 10.8535C5.80756 11.7022 6.22424 12.4817 6.8361 13.0936C7.44795 13.7054 8.2275 14.1221 9.07617 14.2909C9.92484 14.4597 10.8045 14.3731 11.6039 14.042C12.4034 13.7108 13.0866 13.1501 13.5674 12.4306C14.0481 11.7112 14.3047 10.8653 14.3047 10C14.3034 8.84008 13.842 7.72805 13.0218 6.90787C12.2016 6.08768 11.0896 5.62632 9.92969 5.625ZM10.5963 12.2094V13.6872C10.1554 13.7711 9.70271 13.7711 9.26188 13.6872V12.2091C9.26188 12.1507 9.24554 12.0935 9.21473 12.044C9.18391 11.9945 9.13984 11.9545 9.0875 11.9287C8.79091 11.7844 8.53642 11.5662 8.34848 11.2951C8.16055 11.024 8.04549 10.7092 8.01436 10.3808C7.98323 10.0524 8.03707 9.72153 8.17072 9.41996C8.30436 9.11839 8.51332 8.85626 8.7775 8.65875V10.3125C8.7775 10.3954 8.81043 10.4749 8.86903 10.5335C8.92764 10.5921 9.00712 10.625 9.09 10.625H10.7681C10.851 10.625 10.9305 10.5921 10.9891 10.5335C11.0477 10.4749 11.0806 10.3954 11.0806 10.3125V8.65531C11.3457 8.8526 11.5555 9.11487 11.6897 9.41682C11.824 9.71877 11.8781 10.0502 11.847 10.3792C11.8159 10.7082 11.7005 11.0236 11.512 11.295C11.3236 11.5664 11.0683 11.7847 10.7709 11.9287C10.7184 11.9545 10.6742 11.9944 10.6433 12.044C10.6123 12.0936 10.5963 12.1509 10.5963 12.2094ZM11.2213 13.5159V12.3956C11.6321 12.155 11.9674 11.804 12.1888 11.3824C12.4103 10.9609 12.5091 10.4857 12.4741 10.0108C12.4392 9.53591 12.2717 9.08034 11.9909 8.69579C11.7101 8.31125 11.327 8.01315 10.8853 7.83531C10.8379 7.81612 10.7865 7.80888 10.7356 7.81421C10.6847 7.81954 10.6359 7.83729 10.5934 7.86589C10.551 7.8945 10.5163 7.93309 10.4922 7.97826C10.4682 8.02344 10.4556 8.07383 10.4556 8.125V10H9.4025V8.12812C9.4025 8.07695 9.38993 8.02657 9.36591 7.98139C9.34188 7.93621 9.30712 7.89762 9.26469 7.86902C9.22226 7.84041 9.17346 7.82267 9.12257 7.81733C9.07167 7.812 9.02025 7.81925 8.97281 7.83844C8.53189 8.01664 8.14966 8.31473 7.86942 8.69897C7.58917 9.08321 7.42211 9.53823 7.38715 10.0125C7.35219 10.4868 7.45072 10.9614 7.67159 11.3826C7.89246 11.8038 8.22684 12.1547 8.63688 12.3956V13.5156C7.8101 13.212 7.11656 12.6271 6.67784 11.8634C6.23911 11.0997 6.0832 10.2059 6.23743 9.33878C6.39166 8.47163 6.84619 7.68644 7.52135 7.12085C8.1965 6.55525 9.04919 6.24534 9.92994 6.24545C10.8107 6.24555 11.6633 6.55567 12.3383 7.12143C13.0133 7.68719 13.4677 8.47249 13.6217 9.33967C13.7757 10.2069 13.6196 11.1006 13.1807 11.8642C12.7418 12.6278 12.0481 13.2125 11.2213 13.5159Z" fill="black"/>
<path d="M9.92969 5.625C9.0644 5.625 8.21853 5.88159 7.49907 6.36232C6.7796 6.84305 6.21885 7.52633 5.88772 8.32576C5.55658 9.12519 5.46994 10.0049 5.63875 10.8535C5.80756 11.7022 6.22424 12.4817 6.8361 13.0936C7.44795 13.7054 8.2275 14.1221 9.07617 14.2909C9.92484 14.4597 10.8045 14.3731 11.6039 14.042C12.4034 13.7108 13.0866 13.1501 13.5674 12.4306C14.0481 11.7112 14.3047 10.8653 14.3047 10C14.3034 8.84008 13.842 7.72805 13.0218 6.90787C12.2016 6.08768 11.0896 5.62632 9.92969 5.625ZM10.5963 12.2094V13.6872C10.1554 13.7711 9.70271 13.7711 9.26188 13.6872V12.2091C9.26188 12.1507 9.24554 12.0935 9.21473 12.044C9.18391 11.9945 9.13984 11.9545 9.0875 11.9287C8.79091 11.7844 8.53642 11.5662 8.34848 11.2951C8.16055 11.024 8.04549 10.7092 8.01436 10.3808C7.98323 10.0524 8.03707 9.72153 8.17072 9.41996C8.30436 9.11839 8.51332 8.85626 8.7775 8.65875V10.3125C8.7775 10.3954 8.81043 10.4749 8.86903 10.5335C8.92764 10.5921 9.00712 10.625 9.09 10.625H10.7681C10.851 10.625 10.9305 10.5921 10.9891 10.5335C11.0477 10.4749 11.0806 10.3954 11.0806 10.3125V8.65531C11.3457 8.8526 11.5555 9.11487 11.6897 9.41682C11.824 9.71877 11.8781 10.0502 11.847 10.3792C11.8159 10.7082 11.7005 11.0236 11.512 11.295C11.3236 11.5664 11.0683 11.7847 10.7709 11.9287C10.7184 11.9545 10.6742 11.9944 10.6433 12.044C10.6123 12.0936 10.5963 12.1509 10.5963 12.2094ZM11.2213 13.5159V12.3956C11.6321 12.155 11.9674 11.804 12.1888 11.3824C12.4103 10.9609 12.5091 10.4857 12.4741 10.0108C12.4392 9.53591 12.2717 9.08034 11.9909 8.69579C11.7101 8.31125 11.327 8.01315 10.8853 7.83531C10.8379 7.81612 10.7865 7.80888 10.7356 7.81421C10.6847 7.81954 10.6359 7.83729 10.5934 7.86589C10.551 7.8945 10.5163 7.93309 10.4922 7.97826C10.4682 8.02344 10.4556 8.07383 10.4556 8.125V10H9.4025V8.12812C9.4025 8.07695 9.38993 8.02657 9.36591 7.98139C9.34188 7.93621 9.30712 7.89762 9.26469 7.86902C9.22226 7.84041 9.17346 7.82267 9.12257 7.81733C9.07167 7.812 9.02025 7.81925 8.97281 7.83844C8.53189 8.01664 8.14966 8.31473 7.86942 8.69897C7.58917 9.08321 7.42211 9.53823 7.38715 10.0125C7.35219 10.4868 7.45072 10.9614 7.67159 11.3826C7.89246 11.8038 8.22684 12.1547 8.63688 12.3956V13.5156C7.8101 13.212 7.11656 12.6271 6.67784 11.8634C6.23911 11.0997 6.0832 10.2059 6.23743 9.33878C6.39166 8.47163 6.84619 7.68644 7.52135 7.12085C8.1965 6.55525 9.04919 6.24534 9.92994 6.24545C10.8107 6.24555 11.6633 6.55567 12.3383 7.12143C13.0133 7.68719 13.4677 8.47249 13.6217 9.33967C13.7757 10.2069 13.6196 11.1006 13.1807 11.8642C12.7418 12.6278 12.0481 13.2125 11.2213 13.5159Z" fill="#121728"/>
<path d="M15.3851 11.7314C15.4009 11.671 15.4357 11.6173 15.4844 11.5783C15.5331 11.5393 15.5931 11.517 15.6555 11.5148H16.0617C16.1341 11.5147 16.2042 11.4895 16.2601 11.4435C16.3159 11.3974 16.3541 11.3334 16.368 11.2623C16.5336 10.4285 16.5336 9.57024 16.368 8.73641C16.3542 8.66525 16.3161 8.60109 16.2602 8.55491C16.2044 8.50873 16.1342 8.48341 16.0617 8.48328H15.6555C15.5931 8.48114 15.5332 8.45894 15.4844 8.41997C15.4357 8.38101 15.4009 8.32737 15.3851 8.26703C15.2865 7.95727 15.1615 7.65649 15.0117 7.36797C14.98 7.31406 14.9665 7.25132 14.9734 7.18913C14.9803 7.12694 15.0071 7.06865 15.0498 7.02297L15.3386 6.73422C15.3899 6.68294 15.4217 6.61543 15.4286 6.54325C15.4356 6.47107 15.4172 6.39872 15.3767 6.3386C14.9026 5.63304 14.2958 5.02637 13.5901 4.55235C13.53 4.51193 13.4577 4.49364 13.3855 4.50059C13.3134 4.50754 13.2459 4.53931 13.1945 4.59047L12.9061 4.87922C12.8603 4.92196 12.802 4.94877 12.7398 4.95564C12.6775 4.96251 12.6147 4.94908 12.5608 4.91735C12.2723 4.76748 11.9715 4.64255 11.6617 4.54391C11.6013 4.52818 11.5477 4.49336 11.5087 4.44465C11.4697 4.39594 11.4476 4.33594 11.4455 4.2736V3.86735C11.4453 3.79491 11.4201 3.72476 11.374 3.6689C11.3278 3.61304 11.2637 3.57493 11.1926 3.5611C10.3586 3.3963 9.50042 3.3963 8.6664 3.5611C8.59529 3.57493 8.5312 3.61304 8.48509 3.6689C8.43897 3.72476 8.4137 3.79491 8.41358 3.86735V4.2736C8.41149 4.33594 8.3893 4.39594 8.35034 4.44465C8.31137 4.49336 8.2577 4.52818 8.19733 4.54391C7.88755 4.64255 7.58677 4.76748 7.29827 4.91735C7.24433 4.949 7.18161 4.96239 7.11945 4.95552C7.05728 4.94865 6.999 4.92189 6.95327 4.87922L6.66452 4.59047C6.61318 4.53931 6.54568 4.50754 6.47353 4.50059C6.40139 4.49364 6.32906 4.51193 6.2689 4.55235C5.56337 5.0264 4.9567 5.63307 4.48265 6.3386C4.44211 6.39872 4.42375 6.47107 4.43071 6.54325C4.43766 6.61543 4.4695 6.68294 4.52077 6.73422L4.80952 7.02266C4.85231 7.06838 4.87914 7.12673 4.88601 7.18897C4.89289 7.25122 4.87943 7.31401 4.84765 7.36797C4.69784 7.6565 4.57291 7.95728 4.47421 8.26703C4.45849 8.32743 4.42369 8.38114 4.37498 8.42016C4.32628 8.45918 4.26627 8.48143 4.2039 8.4836H3.79796C3.72547 8.48364 3.65525 8.50888 3.59932 8.555C3.54339 8.60112 3.50524 8.66525 3.4914 8.73641C3.32578 9.57024 3.32578 10.4285 3.4914 11.2623C3.50531 11.3334 3.54349 11.3975 3.59941 11.4436C3.65533 11.4896 3.72551 11.5148 3.79796 11.5148H4.2039C4.26627 11.517 4.32628 11.5393 4.37498 11.5783C4.42369 11.6173 4.45849 11.671 4.47421 11.7314C4.57287 12.0411 4.6978 12.3418 4.84765 12.6302C4.87943 12.6841 4.89289 12.7469 4.88601 12.8092C4.87914 12.8714 4.85231 12.9297 4.80952 12.9755L4.52077 13.2642C4.4695 13.3155 4.43766 13.383 4.43071 13.4552C4.42375 13.5274 4.44211 13.5997 4.48265 13.6598C4.9567 14.3654 5.56337 14.972 6.2689 15.4461C6.32902 15.4866 6.40137 15.505 6.47355 15.498C6.54573 15.4911 6.61324 15.4592 6.66452 15.408L6.95327 15.1192C6.99902 15.0766 7.0573 15.0499 7.11945 15.043C7.18161 15.0361 7.24432 15.0495 7.29827 15.0811C7.58677 15.231 7.88755 15.3559 8.19733 15.4545C8.25776 15.4702 8.31149 15.505 8.35052 15.5537C8.38955 15.6024 8.41178 15.6625 8.4139 15.7248V16.1311C8.414 16.2035 8.43923 16.2736 8.48528 16.3295C8.53133 16.3853 8.59535 16.4234 8.6664 16.4373C9.50034 16.603 10.3587 16.603 11.1926 16.4373C11.2637 16.4235 11.3278 16.3854 11.374 16.3295C11.4201 16.2737 11.4453 16.2035 11.4455 16.1311V15.7248C11.4476 15.6625 11.4697 15.6025 11.5087 15.5538C11.5477 15.5051 11.6013 15.4703 11.6617 15.4545C11.9715 15.3559 12.2723 15.231 12.5608 15.0811C12.6148 15.0494 12.6775 15.036 12.7398 15.0429C12.802 15.0498 12.8603 15.0765 12.9061 15.1192L13.1945 15.408C13.2458 15.4592 13.3133 15.4911 13.3855 15.498C13.4577 15.505 13.53 15.4866 13.5901 15.4461C14.2957 14.972 14.9023 14.3654 15.3764 13.6598C15.4169 13.5997 15.4353 13.5274 15.4283 13.4552C15.4214 13.383 15.3895 13.3155 15.3383 13.2642L15.0495 12.9758C15.0067 12.93 14.9798 12.8716 14.973 12.8093C14.9662 12.747 14.9798 12.6841 15.0117 12.6302C15.1613 12.3417 15.2865 12.041 15.3851 11.7314ZM14.7895 11.542C14.7017 11.8176 14.5906 12.0853 14.4573 12.342C14.3642 12.5139 14.3286 12.7111 14.3557 12.9046C14.3828 13.0982 14.4712 13.278 14.608 13.4177L14.7108 13.5205C14.3567 14.0013 13.932 14.4259 13.4511 14.7798L13.348 14.6773C13.2084 14.5407 13.0287 14.4523 12.8353 14.4251C12.6418 14.3979 12.4448 14.4334 12.273 14.5264C12.0162 14.6598 11.7486 14.771 11.473 14.8589C11.2862 14.915 11.1222 15.0292 11.0049 15.185C10.8876 15.3407 10.8231 15.5299 10.8208 15.7248V15.868C10.2304 15.9592 9.62956 15.9592 9.03921 15.868V15.7248C9.03687 15.5299 8.97235 15.3407 8.85504 15.185C8.73773 15.0292 8.57377 14.915 8.38702 14.8589C8.11138 14.771 7.84374 14.6598 7.58702 14.5264C7.41517 14.4334 7.21805 14.3979 7.02454 14.4251C6.83104 14.4522 6.65132 14.5406 6.51171 14.6773L6.40858 14.7798C5.92781 14.4258 5.50324 14.0012 5.14921 13.5205L5.25171 13.4173C5.38828 13.2777 5.47662 13.0981 5.50383 12.9047C5.53104 12.7113 5.4957 12.5142 5.40296 12.3423C5.26927 12.0856 5.15792 11.8179 5.07015 11.542C5.01406 11.3553 4.89982 11.1913 4.74407 11.074C4.58832 10.9567 4.39918 10.8922 4.20421 10.8898H4.06108C3.96954 10.2996 3.96954 9.69882 4.06108 9.1086H4.20421C4.39918 9.10625 4.58832 9.04173 4.74407 8.92443C4.89982 8.80712 5.01406 8.64315 5.07015 8.45641C5.15798 8.18061 5.26933 7.91285 5.40296 7.6561C5.49577 7.48417 5.53116 7.28707 5.50394 7.0936C5.47673 6.90013 5.38835 6.72043 5.25171 6.58078L5.1489 6.47797C5.50312 5.99715 5.9279 5.57258 6.4089 5.2186L6.51171 5.3211C6.65137 5.45761 6.83102 5.5459 7.02443 5.57305C7.21783 5.60021 7.41485 5.56481 7.58671 5.47203C7.84343 5.33864 8.11107 5.2274 8.38671 5.13953C8.57351 5.0835 8.73755 4.96929 8.85491 4.81353C8.97228 4.65777 9.03685 4.46861 9.03921 4.2736V4.13047C9.62946 4.03926 10.2302 4.03926 10.8205 4.13047V4.2736C10.8228 4.46861 10.8874 4.65777 11.0048 4.81353C11.1221 4.96929 11.2862 5.0835 11.473 5.13953C11.7486 5.2274 12.0162 5.33864 12.273 5.47203C12.4448 5.56491 12.6418 5.60036 12.8353 5.5732C13.0287 5.54604 13.2083 5.4577 13.348 5.3211L13.4511 5.2186C13.9319 5.57263 14.3564 5.9972 14.7105 6.47797L14.608 6.5811C14.4713 6.72068 14.3829 6.90034 14.3558 7.09378C14.3286 7.28722 14.3641 7.48428 14.457 7.6561C14.5904 7.91282 14.7016 8.18046 14.7895 8.4561C14.8456 8.64284 14.9598 8.80712 15.1156 8.92443C15.2714 9.04173 15.4605 9.10625 15.6555 9.1086H15.7986C15.8901 9.69882 15.8901 10.2996 15.7986 10.8898H15.6555C15.4605 10.8922 15.2714 10.9567 15.1156 11.074C14.9598 11.1913 14.8456 11.3553 14.7895 11.542Z" fill="#121728"/>
<defs>
<linearGradient id="paint0_linear_1137_4841" x1="4.49864e-06" y1="10" x2="20" y2="10" gradientUnits="userSpaceOnUse">
<stop stop-color="#0091EE"/>
<stop offset="1" stop-color="#8BDEFF"/>
</linearGradient>
</defs>
</svg>
