<svg width="20" height="20" viewBox="0 0 20 20" fill="none" xmlns="http://www.w3.org/2000/svg">
<g clip-path="url(#clip0_1137_4845)">
<path d="M9.99625 19.9925C15.517 19.9925 19.9925 15.517 19.9925 9.99625C19.9925 4.47547 15.517 0 9.99625 0C4.47547 0 0 4.47547 0 9.99625C0 15.517 4.47547 19.9925 9.99625 19.9925Z" fill="url(#paint0_linear_1137_4845)"/>
<path fill-rule="evenodd" clip-rule="evenodd" d="M13.4178 11.4667C13.3578 11.4667 13.2979 11.4442 13.2604 11.3842L12.8104 10.7543L12.338 11.3917C12.188 11.5942 11.8805 11.3617 12.0305 11.1592L12.5779 10.4243L12.0455 9.6819C11.8955 9.47943 12.2105 9.24696 12.3605 9.45693L12.8179 10.1018L13.2829 9.47943C13.4328 9.27695 13.7403 9.50942 13.5903 9.7119L13.0579 10.4318L13.5753 11.1592C13.6653 11.2867 13.5678 11.4667 13.4178 11.4667ZM13.7103 6.91475H6.28623C6.03876 6.91475 6.03876 6.53229 6.28623 6.53229H13.7103C13.9653 6.53229 13.9653 6.91475 13.7103 6.91475ZM13.7103 8.00211H6.28623C6.03876 8.00211 6.03876 7.61216 6.28623 7.61216H13.7103C13.9653 7.61216 13.9653 8.00211 13.7103 8.00211ZM15.1126 13.3789V6.55479C15.1126 5.50492 14.5052 4.65753 13.7628 4.65753H6.24123C5.49133 4.65753 4.8914 5.50492 4.8914 6.55479V13.3789H8.9034L8.9109 13.3864H8.9259L8.9334 13.3939H8.94839V13.4014H8.95589L8.96339 13.4089H8.97089L8.97839 13.4164L8.98589 13.4239H8.99339V13.4314H9.00089C9.00089 13.4389 9.05338 13.5139 9.05338 13.5739V14.1513H10.9431V13.5739C10.9431 13.4314 11.0181 13.4239 11.1006 13.3789H11.1456H15.1126ZM4.50145 13.3789V6.55479C4.50145 5.29495 5.28135 4.26758 6.24123 4.26758H13.7628C14.7227 4.26758 15.5026 5.29495 15.5026 6.55479V13.3789H16.2075C16.3125 13.3789 16.4025 13.4614 16.4025 13.5739C16.4025 14.7588 15.4351 15.7261 14.2427 15.7261H5.76129C4.56894 15.7261 3.60156 14.7588 3.60156 13.5739C3.60156 13.4614 3.69155 13.3789 3.79654 13.3789H4.50145ZM8.67093 13.7614H3.99901C4.0965 14.6463 4.84641 15.3437 5.76129 15.3437H14.2427C15.1501 15.3437 15.9075 14.6463 16.005 13.7614H11.3331V14.3463C11.3331 14.4513 11.2431 14.5413 11.1381 14.5413H8.85841C8.75342 14.5413 8.67093 14.4588 8.67093 14.3463V13.7614ZM9.00839 11.8866C8.8809 11.8866 8.78341 11.7666 8.82091 11.6392L9.53332 8.96949C9.60081 8.72952 9.97577 8.83451 9.90827 9.07448L9.19586 11.7441C9.17337 11.8266 9.09088 11.8866 9.00839 11.8866ZM10.9131 11.4742C10.4857 11.4742 10.1632 11.1967 10.1857 10.7543V9.56192C10.1857 9.31445 10.5682 9.31445 10.5682 9.56192C10.5682 9.80189 10.5832 10.6118 10.5682 10.7843C10.5307 11.1892 11.2881 11.1892 11.2506 10.7843C11.2356 10.6193 11.2506 9.79439 11.2506 9.56192C11.2506 9.31445 11.6406 9.31445 11.6406 9.56192V10.7543C11.6556 11.1967 11.3331 11.4742 10.9131 11.4742ZM7.10362 11.3467C6.67618 11.3467 6.35372 11.0692 6.37622 10.6268V9.43443C6.37622 9.18696 6.75867 9.18696 6.75867 9.43443C6.75867 9.6819 6.77367 10.4693 6.75867 10.6568C6.72867 11.0617 7.47858 11.0617 7.44108 10.6568C7.42608 10.4693 7.44108 9.6819 7.44108 9.43443C7.44108 9.18696 7.83103 9.18696 7.83103 9.43443V10.6268C7.84603 11.0692 7.52357 11.3467 7.10362 11.3467ZM8.40096 11.3392C8.29598 11.3392 8.20599 11.2567 8.20599 11.1442V9.44193C8.20599 9.18696 8.59594 9.18696 8.59594 9.44193V11.1442C8.59594 11.2567 8.50595 11.3392 8.40096 11.3392Z" fill="#121728"/>
</g>
<defs>
<linearGradient id="paint0_linear_1137_4845" x1="4.49695e-06" y1="9.99625" x2="19.9925" y2="9.99625" gradientUnits="userSpaceOnUse">
<stop stop-color="#0091EE"/>
<stop offset="1" stop-color="#8BDEFF"/>
</linearGradient>
<clipPath id="clip0_1137_4845">
<rect width="20" height="20" fill="white"/>
</clipPath>
</defs>
</svg>
