<svg width="24" height="24" viewBox="0 0 24 24" fill="none" xmlns="http://www.w3.org/2000/svg">
<g id="Frame" clip-path="url(#clip0_990_249)">
<g id="Group">
<path id="Vector" d="M12 23.9998C18.6274 23.9998 24 18.6272 24 11.9998C24 5.3724 18.6274 -0.000179291 12 -0.000179291C5.37258 -0.000179291 0 5.3724 0 11.9998C0 18.6272 5.37258 23.9998 12 23.9998Z" fill="#007AB9"/>
<path id="Vector_2" d="M19.1698 12.9654V17.9127H16.3014V13.2969C16.3014 12.138 15.8873 11.3465 14.8488 11.3465C14.0562 11.3465 13.5854 11.8794 13.3775 12.3953C13.302 12.5797 13.2825 12.8358 13.2825 13.0944V17.9125H10.4139C10.4139 17.9125 10.4525 10.0949 10.4139 9.28568H13.2827V10.5082C13.2769 10.5178 13.2688 10.5272 13.2637 10.5364H13.2827V10.5082C13.6639 9.92164 14.3437 9.0831 15.8678 9.0831C17.755 9.0831 19.1698 10.3161 19.1698 12.9654ZM7.4132 5.12724C6.43199 5.12724 5.79004 5.77133 5.79004 6.61756C5.79004 7.44582 6.41338 8.10852 7.37555 8.10852H7.39416C8.39462 8.10852 9.01668 7.44582 9.01668 6.61756C8.99764 5.77133 8.39462 5.12724 7.4132 5.12724ZM5.96053 17.9127H8.82801V9.28568H5.96053V17.9127Z" fill="#F1F2F2"/>
</g>
</g>
<defs>
<clipPath id="clip0_990_249">
<rect width="24" height="24" fill="white"/>
</clipPath>
</defs>
</svg>
